<svg width="117" height="156" viewBox="0 0 117 156" fill="none" xmlns="http://www.w3.org/2000/svg">
<path d="M58.5 109.5C88.0472 109.5 112 85.5472 112 56C112 26.4528 88.0472 2.5 58.5 2.5C28.9528 2.5 5 26.4528 5 56C5 85.5472 28.9528 109.5 58.5 109.5Z" stroke="#707786" stroke-width="5"/>
<path d="M43 44.7025C43 35.5886 50.1795 28.5 58.1282 28.5C66.3333 28.5 73 34.5759 73 42.6772C73 48.7532 69.6667 52.2975 65.0513 55.8418C60.9487 58.8797 58.641 60.9051 58.641 65.462V68.5" stroke="#707786" stroke-width="5" stroke-linecap="round" stroke-linejoin="round"/>
<path d="M59 85.5C61.2091 85.5 63 83.4853 63 81C63 78.5147 61.2091 76.5 59 76.5C56.7909 76.5 55 78.5147 55 81C55 83.4853 56.7909 85.5 59 85.5Z" fill="#707786"/>
<path d="M20.37 123.36H24.36V151.14H20.37V123.36ZM12.18 126.24H16.11C16.11 128.36 15.9 130.39 15.48 132.33C15.08 134.25 14.4 136.06 13.44 137.76C12.5 139.46 11.2 141.04 9.54 142.5C7.9 143.94 5.85 145.26 3.39 146.46L1.29 143.31C3.97 142.01 6.1 140.58 7.68 139.02C9.28 137.44 10.43 135.66 11.13 133.68C11.83 131.68 12.18 129.44 12.18 126.96V126.24ZM2.79 126.24H14.04V129.42H2.79V126.24ZM31.9777 130.29H51.1777V133.44H31.9777V130.29ZM31.9777 123.84H35.9677V131.73H31.9777V123.84ZM28.8577 135.81H53.9677V138.99H28.8577V135.81ZM41.3077 140.79C44.3077 140.79 46.6677 141.24 48.3877 142.14C50.1077 143.02 50.9677 144.29 50.9677 145.95C50.9677 147.57 50.1077 148.83 48.3877 149.73C46.6677 150.65 44.3077 151.11 41.3077 151.11C38.3077 151.11 35.9477 150.65 34.2277 149.73C32.5277 148.83 31.6777 147.57 31.6777 145.95C31.6777 144.29 32.5277 143.02 34.2277 142.14C35.9477 141.24 38.3077 140.79 41.3077 140.79ZM41.3077 143.82C40.0677 143.82 39.0277 143.9 38.1877 144.06C37.3677 144.2 36.7477 144.43 36.3277 144.75C35.9077 145.05 35.6977 145.44 35.6977 145.92C35.6977 146.4 35.9077 146.8 36.3277 147.12C36.7477 147.42 37.3677 147.65 38.1877 147.81C39.0277 147.97 40.0677 148.05 41.3077 148.05C42.5477 148.05 43.5777 147.97 44.3977 147.81C45.2377 147.65 45.8677 147.42 46.2877 147.12C46.7077 146.8 46.9177 146.4 46.9177 145.92C46.9177 145.44 46.7077 145.05 46.2877 144.75C45.8677 144.43 45.2377 144.2 44.3977 144.06C43.5777 143.9 42.5477 143.82 41.3077 143.82ZM70.5853 127.44H77.4253V130.62H70.5853V127.44ZM75.6553 123.39H79.6753V137.49H75.6553V123.39ZM61.3153 138.63H79.6753V146.13H65.3053V149.61H61.3453V143.25H75.7153V141.72H61.3153V138.63ZM61.3453 147.75H80.4553V150.87H61.3453V147.75ZM62.7553 124.26H65.9953V126.27C65.9953 127.99 65.7153 129.62 65.1553 131.16C64.6153 132.7 63.7753 134.04 62.6353 135.18C61.4953 136.3 60.0353 137.14 58.2553 137.7L56.2153 134.58C57.7553 134.1 59.0053 133.44 59.9653 132.6C60.9253 131.74 61.6253 130.76 62.0653 129.66C62.5253 128.56 62.7553 127.43 62.7553 126.27V124.26ZM63.5653 124.26H66.7753V126.27C66.7753 127.07 66.8953 127.87 67.1353 128.67C67.3953 129.47 67.7753 130.22 68.2753 130.92C68.7753 131.62 69.4153 132.24 70.1953 132.78C70.9953 133.32 71.9353 133.76 73.0153 134.1L70.9753 137.16C69.2953 136.62 67.9053 135.81 66.8053 134.73C65.7053 133.65 64.8853 132.38 64.3453 130.92C63.8253 129.46 63.5653 127.91 63.5653 126.27V124.26ZM97.433 127.38H104.513V130.56H97.433V127.38ZM97.433 132.93H104.633V136.11H97.433V132.93ZM103.253 123.39H107.273V139.65H103.253V123.39ZM85.133 125.37H98.273V138.15H85.133V125.37ZM94.373 128.52H89.063V135.03H94.373V128.52ZM97.853 140.37C100.793 140.37 103.113 140.85 104.813 141.81C106.513 142.75 107.363 144.06 107.363 145.74C107.363 147.46 106.513 148.79 104.813 149.73C103.113 150.69 100.793 151.17 97.853 151.17C94.913 151.17 92.593 150.69 90.893 149.73C89.193 148.79 88.343 147.46 88.343 145.74C88.343 144.06 89.193 142.75 90.893 141.81C92.593 140.85 94.913 140.37 97.853 140.37ZM97.853 143.43C96.653 143.43 95.643 143.51 94.823 143.67C94.003 143.83 93.373 144.09 92.933 144.45C92.513 144.79 92.303 145.23 92.303 145.77C92.303 146.29 92.513 146.73 92.933 147.09C93.373 147.43 94.003 147.69 94.823 147.87C95.643 148.03 96.653 148.11 97.853 148.11C99.053 148.11 100.063 148.03 100.883 147.87C101.703 147.69 102.323 147.43 102.743 147.09C103.163 146.73 103.373 146.29 103.373 145.77C103.373 145.23 103.163 144.79 102.743 144.45C102.323 144.09 101.703 143.83 100.883 143.67C100.063 143.51 99.053 143.43 97.853 143.43Z" fill="#707786"/>
</svg>
